# xmcd
#
# Track frame offsets: 
#        150
#        20748
#        37070
#        53826
#        67530
#        82397
#        95837
#        109437
#        125373
#        140429
#        161120
#        177902
#        194190
#        207830
#
# Disc length: 2996 seconds
#
# Revision: 0
# Processed by: cddbd v1.5.2PL0 Copyright (c) Steve Scherf et al.
# Submitted via: ExactAudioCopy v0.99pb5
#
DISCID=d70bb20e
DTITLE=Various Artist - CDX Volume 511 Oct 2010
DYEAR=2010
DGENRE=Country
TTITLE0=Lady Antebellum - Hello World
TTITLE1=Josh Turner - I Wouldn't Be A Man
TTITLE2=Keith Urban - Put You In A Song
TTITLE3=Point Of Grace - Love And Laundry
TTITLE4=Jimmie Vanzant - Too Much Town, Not Enough Ground
TTITLE5=Becky Blackaby - Kelly's Got A Boyfriend
TTITLE6=Patrick McGraw - My So Called Life
TTITLE7=Autumn Letendre - Raise Your Flag
TTITLE8=The Young Republic - Tennessee Mornings
TTITLE9=George Jones and Eric Lee Beddingfield - The Gospel According To
TTITLE9=Jones
TTITLE10=Tim Spears - The Love They Almost Threw Away
TTITLE11=Missy Gayle - What's He Doing
TTITLE12=Pat Garrett - Tea Party
TTITLE13=Mel Tillis - Huntin' Buddies
EXTD=
EXTT0=
EXTT1=
EXTT2=
EXTT3=
EXTT4=
EXTT5=
EXTT6=
EXTT7=
EXTT8=
EXTT9=
EXTT10=
EXTT11=
EXTT12=
EXTT13=
PLAYORDER=
